<svg xmlns="http://www.w3.org/2000/svg" version="1.1" xmlns:xlink="http://www.w3.org/1999/xlink" xmlns:svgjs="http://svgjs.dev/svgjs" width="2000" height="1999" viewBox="0 0 2000 1999"><g transform="matrix(1,0,0,1,-0.431486880466764,-0.4312711370263287)"><svg viewBox="0 0 343 343" data-background-color="#000000" preserveAspectRatio="xMidYMid meet" height="1999" width="2000" xmlns="http://www.w3.org/2000/svg" xmlns:xlink="http://www.w3.org/1999/xlink"><g id="tight-bounds" transform="matrix(1,0,0,1,0.0740000000000407,0.07400000000001228)"><svg viewBox="0 0 342.85155851775386 342.85155851775386" height="342.85155851775386" width="342.85155851775386"><rect width="342.852" height="342.852" fill="url(#f955c1d8-9a96-4861-965f-3deeafc6dcd7)" mask="url(#78ea31f3-998a-4dfd-a5a5-1e0e43a8922e)" data-fill-palette-color="tertiary"></rect><g><svg></svg></g><g><svg viewBox="0 0 342.85155851775386 342.85155851775386" height="342.85155851775386" width="342.85155851775386"><g><path d="M0 171.426c0-94.676 76.75-171.426 171.426-171.426 94.676 0 171.426 76.75 171.426 171.426 0 94.676-76.75 171.426-171.426 171.426-94.676 0-171.426-76.75-171.426-171.426zM171.426 340.057c93.132 0 168.631-75.499 168.631-168.631 0-93.132-75.499-168.631-168.631-168.632-93.132 0-168.631 75.499-168.632 168.632 0 93.132 75.499 168.631 168.632 168.631z" data-fill-palette-color="tertiary" fill="url(#f955c1d8-9a96-4861-965f-3deeafc6dcd7)" stroke="transparent"></path><ellipse rx="164.56874808852186" ry="164.56874808852186" cx="171.42577925887693" cy="171.42577925887693" fill="url(#f955c1d8-9a96-4861-965f-3deeafc6dcd7)" stroke="transparent" stroke-width="0" fill-opacity="1" data-fill-palette-color="tertiary"></ellipse></g><g transform="matrix(1,0,0,1,64.84655864529837,99.34110459718137)"><svg viewBox="0 0 213.1584412271571 144.16934932339112" height="144.16934932339112" width="213.1584412271571"><g><svg viewBox="0 0 213.1584412271571 144.16934932339112" height="144.16934932339112" width="213.1584412271571"><g><svg viewBox="0 0 213.1584412271571 144.16934932339112" height="144.16934932339112" width="213.1584412271571"><g transform="matrix(1,0,0,1,0,86.71598221364053)"><svg viewBox="0 0 213.1584412271571 57.45336710975058" height="57.45336710975058" width="213.1584412271571"><g id="textblocktransform"><svg viewBox="0 0 213.1584412271571 57.45336710975058" height="57.45336710975058" width="213.1584412271571" id="textblock"><g><svg viewBox="0 0 213.1584412271571 30.987600891091077" height="30.987600891091077" width="213.1584412271571"><g transform="matrix(1,0,0,1,0,0)"><svg width="213.1584412271571" viewBox="1.95 -34.95 246.93 35.900000000000006" height="30.987600891091077" data-palette-color="#000000"><path d="M31.2-29.3L31.2-29.3 28.35-26.4 27.65-26.45Q26.4-29.85 24.1-31.38 21.8-32.9 18.7-32.9L18.7-32.9Q15.3-32.9 12.95-31.55 10.6-30.2 9.15-27.9 7.7-25.6 7.05-22.83 6.4-20.05 6.4-17.2L6.4-17.2Q6.4-14.9 7.08-12.65 7.75-10.4 8.7-8.65 9.65-6.9 10.45-6.05L10.45-6.05Q12.5-4 14.43-2.95 16.35-1.9 19.4-1.9L19.4-1.9Q21.95-1.9 24.3-2.88 26.65-3.85 28.75-5.25L28.75-5.25 29.6-3.8Q26.9-1.95 23.9-0.6 20.9 0.75 17.65 0.75L17.65 0.75Q14.7 0.75 11.8-0.03 8.9-0.8 6.75-2.95L6.75-2.95Q4.15-5.6 3.05-9.13 1.95-12.65 1.95-16.3L1.95-16.3Q1.95-19.9 2.93-23.4 3.9-26.9 6.5-29.5L6.5-29.5Q9.25-32.25 12.88-33.6 16.5-34.95 20.4-34.95L20.4-34.95Q23.7-34.95 26.48-33.73 29.25-32.5 31.2-29.3ZM53.2-2.95L53.2-2.95Q51.45-0.95 48.92-0.13 46.4 0.7 43.75 0.7L43.75 0.7Q40.3 0.7 38.22-0.83 36.15-2.35 35.2-4.75 34.25-7.15 34.05-9.8L34.05-9.8Q34.05-12.4 34.52-15 35-17.6 36.8-19.55L36.8-19.55Q38.55-21.5 41.07-22.38 43.6-23.25 46.2-23.25L46.2-23.25Q49.9-23.25 52.05-21.6 54.2-19.95 55.15-17.35 56.1-14.75 56.1-11.95L56.1-11.95Q56.1-9.5 55.47-7.15 54.85-4.8 53.2-2.95ZM45.05-21.3L45.05-21.3Q43.05-21.3 41.25-19.95 39.45-18.6 38.75-15.8L38.75-15.8Q38.55-14.85 38.45-13.9 38.35-12.95 38.35-11.95L38.35-11.95Q38.35-10.4 38.65-8.55 38.95-6.7 39.67-5.08 40.4-3.45 41.72-2.4 43.05-1.35 45.1-1.35L45.1-1.35Q47.15-1.35 48.42-2.25 49.7-3.15 50.4-4.6 51.1-6.05 51.37-7.75 51.65-9.45 51.65-11L51.65-11Q51.65-12.55 51.4-14.33 51.15-16.1 50.47-17.7 49.8-19.3 48.47-20.3 47.15-21.3 45.05-21.3ZM68.25-0.9L68.25-0.9 64.75 0.3 64-0.05Q64.05-1 64.12-2.85 64.2-4.7 64.27-6.93 64.34-9.15 64.4-11.28 64.45-13.4 64.45-14.9L64.45-14.9Q64.45-17.4 64.15-19.03 63.85-20.65 62.6-20.65L62.6-20.65Q61.8-20.65 60.87-20.13 59.95-19.6 58.85-18.9L58.85-18.9 58-20Q59.05-20.75 60.25-21.58 61.45-22.4 62.65-22.98 63.85-23.55 64.75-23.55L64.75-23.55Q66.65-23.55 67.4-22.55 68.15-21.55 68.34-20.15L68.34-20.15 68.75-19.85Q70.84-21.15 73.32-22.3 75.8-23.45 78.2-23.45L78.2-23.45Q79.3-23.45 80.32-23.15 81.34-22.85 82.05-22L82.05-22Q82.55-21.4 82.75-19.83 82.95-18.25 83-16.32 83.05-14.4 83.05-12.8L83.05-12.8Q83.05-9.05 83.07-6.9 83.09-4.75 83.57-3.88 84.05-3 85.45-3L85.45-3Q86.3-3 87.4-3.65 88.5-4.3 89.45-5L89.45-5 90.09-5 90.55-3.95Q88.84-2.25 86.67-0.88 84.5 0.5 82.7 0.5L82.7 0.5Q80.65 0.5 79.87-0.8 79.09-2.1 79.09-3.9L79.09-3.9 79.34-12.45Q79.34-16.2 78.42-18.35 77.5-20.5 74.84-20.5L74.84-20.5Q73.15-20.5 71.45-19.53 69.75-18.55 68.4-17.45L68.4-17.45Q68.3-14.75 68.2-11.65 68.09-8.55 68.09-5.8L68.09-5.8Q68.09-4.75 68.15-3.58 68.2-2.4 68.25-0.9ZM89.99-20.3L90.19-21.4 90.54-21.7 95.79-21.7 96.09-22Q96.09-23.3 96.24-25.03 96.39-26.75 96.99-28.1L96.99-28.1Q98.14-30.75 100.22-32.1 102.29-33.45 104.64-33.45L104.64-33.45Q106.69-33.45 107.74-32.6 108.79-31.75 109.29-30.75L109.29-30.75 106.39-28.05 105.79-28.25Q105.69-28.8 105.47-29.55 105.24-30.3 104.67-30.88 104.09-31.45 102.89-31.45L102.89-31.45Q101.84-31.45 101.17-30.15 100.49-28.85 100.19-26.7 99.89-24.55 99.89-22L99.89-22 100.09-21.7 106.29-21.7 106.54-21.35 106.19-20.25 105.84-19.95 100.09-19.95 99.79-19.65 99.79-14.1Q99.79-10.6 99.92-7.13 100.04-3.65 100.29-0.6L100.29-0.6 96.34 0.6 95.49 0.05Q95.74-3.65 95.94-7.2 96.14-10.75 96.14-14.15L96.14-14.15 96.14-19.55 95.84-19.95 90.24-19.95 89.99-20.3ZM128.39-17L128.39-17Q128.39-16.55 128.06-16.35 127.74-16.15 127.34-15.95L127.34-15.95 113.24-9.85Q113.39-8.3 114.07-6.65 114.74-5 116.12-3.9 117.49-2.8 119.69-2.8L119.69-2.8Q121.74-2.8 123.72-3.85 125.69-4.9 127.39-6.2L127.39-6.2 127.94-6.1 128.59-5.2Q127.04-3.75 125.22-2.43 123.39-1.1 121.37-0.25 119.34 0.6 117.19 0.6L117.19 0.6Q114.69 0.6 113.07-0.45 111.44-1.5 110.54-3.23 109.64-4.95 109.27-7.08 108.89-9.2 108.89-11.3L108.89-11.3Q108.89-13.5 109.44-15.6 109.99-17.7 111.44-19.4L111.44-19.4Q113.29-21.55 115.87-22.73 118.44-23.9 121.29-23.9L121.29-23.9Q124.54-23.9 126.47-21.9 128.39-19.9 128.39-17ZM119.54-21.9L119.54-21.9Q118.29-21.9 117.22-21.35 116.14-20.8 115.34-19.8L115.34-19.8Q113.89-18.25 113.47-16.55 113.04-14.85 113.04-13L113.04-13Q113.04-12.8 113.07-12.58 113.09-12.35 113.14-12.1L113.14-12.1 113.34-11.9 123.44-15.9Q123.69-16 123.89-16.3 124.09-16.6 124.09-17.2L124.09-17.2Q124.09-18.25 123.54-19.35 122.99-20.45 121.97-21.18 120.94-21.9 119.54-21.9ZM149.89-19.4L149.89-19.4 147.19-16.95 146.59-17.2Q146.39-18.25 145.79-19.18 145.19-20.1 143.94-20.1L143.94-20.1Q142.39-20.1 141.44-19.05 140.49-18 140.09-17L140.09-17Q139.74-16.2 139.69-14.7 139.64-13.2 139.69-11.53 139.74-9.85 139.74-8.5L139.74-8.5Q139.74-4.75 139.89-0.9L139.89-0.9 136.39 0.15 135.64-0.3Q135.89-2.95 136.06-6.05 136.24-9.15 136.24-12.15L136.24-12.15Q136.24-14.1 136.19-16.05 136.14-18 135.69-19.3 135.24-20.6 134.09-20.6L134.09-20.6Q133.24-20.6 132.19-20.1 131.14-19.6 130.19-19.05L130.19-19.05 129.59-19.9Q130.59-20.7 131.76-21.55 132.94-22.4 134.14-23.03 135.34-23.65 136.34-23.65L136.34-23.65Q138.04-23.65 138.89-22.65 139.74-21.65 139.94-20.05L139.94-20.05 140.44-19.85Q141.19-20.55 142.11-21.38 143.04-22.2 144.04-22.78 145.04-23.35 145.94-23.35L145.94-23.35Q149.49-23.35 149.89-19.4ZM171.29-17L171.29-17Q171.29-16.55 170.96-16.35 170.64-16.15 170.24-15.95L170.24-15.95 156.14-9.85Q156.29-8.3 156.96-6.65 157.64-5 159.01-3.9 160.39-2.8 162.59-2.8L162.59-2.8Q164.64-2.8 166.61-3.85 168.59-4.9 170.29-6.2L170.29-6.2 170.84-6.1 171.49-5.2Q169.94-3.75 168.11-2.43 166.29-1.1 164.26-0.25 162.24 0.6 160.09 0.6L160.09 0.6Q157.59 0.6 155.96-0.45 154.34-1.5 153.44-3.23 152.54-4.95 152.16-7.08 151.79-9.2 151.79-11.3L151.79-11.3Q151.79-13.5 152.34-15.6 152.89-17.7 154.34-19.4L154.34-19.4Q156.19-21.55 158.76-22.73 161.34-23.9 164.19-23.9L164.19-23.9Q167.44-23.9 169.36-21.9 171.29-19.9 171.29-17ZM162.44-21.9L162.44-21.9Q161.19-21.9 160.11-21.35 159.04-20.8 158.24-19.8L158.24-19.8Q156.79-18.25 156.36-16.55 155.94-14.85 155.94-13L155.94-13Q155.94-12.8 155.96-12.58 155.99-12.35 156.04-12.1L156.04-12.1 156.24-11.9 166.34-15.9Q166.59-16 166.79-16.3 166.99-16.6 166.99-17.2L166.99-17.2Q166.99-18.25 166.44-19.35 165.89-20.45 164.86-21.18 163.84-21.9 162.44-21.9ZM182.23-0.9L182.23-0.9 178.73 0.3 177.98-0.05Q178.03-1 178.11-2.85 178.18-4.7 178.26-6.93 178.33-9.15 178.38-11.28 178.43-13.4 178.43-14.9L178.43-14.9Q178.43-17.4 178.13-19.03 177.83-20.65 176.58-20.65L176.58-20.65Q175.78-20.65 174.86-20.13 173.93-19.6 172.83-18.9L172.83-18.9 171.98-20Q173.03-20.75 174.23-21.58 175.43-22.4 176.63-22.98 177.83-23.55 178.73-23.55L178.73-23.55Q180.63-23.55 181.38-22.55 182.13-21.55 182.33-20.15L182.33-20.15 182.73-19.85Q184.83-21.15 187.31-22.3 189.78-23.45 192.18-23.45L192.18-23.45Q193.28-23.45 194.31-23.15 195.33-22.85 196.03-22L196.03-22Q196.53-21.4 196.73-19.83 196.93-18.25 196.98-16.32 197.03-14.4 197.03-12.8L197.03-12.8Q197.03-9.05 197.06-6.9 197.08-4.75 197.56-3.88 198.03-3 199.43-3L199.43-3Q200.28-3 201.38-3.65 202.48-4.3 203.43-5L203.43-5 204.08-5 204.53-3.95Q202.83-2.25 200.66-0.88 198.48 0.5 196.68 0.5L196.68 0.5Q194.63 0.5 193.86-0.8 193.08-2.1 193.08-3.9L193.08-3.9 193.33-12.45Q193.33-16.2 192.41-18.35 191.48-20.5 188.83-20.5L188.83-20.5Q187.13-20.5 185.43-19.53 183.73-18.55 182.38-17.45L182.38-17.45Q182.28-14.75 182.18-11.65 182.08-8.55 182.08-5.8L182.08-5.8Q182.08-4.75 182.13-3.58 182.18-2.4 182.23-0.9ZM225.28-5.8L225.28-5.8 225.73-5.7 226.28-4.8Q223.98-2.5 221.21-0.78 218.43 0.95 215.08 0.95L215.08 0.95Q212.03 0.95 210.28-0.18 208.53-1.3 207.71-3.1 206.88-4.9 206.66-6.95 206.43-9 206.43-10.85L206.43-10.85Q206.43-14.6 208.06-17.53 209.68-20.45 212.53-22.1 215.38-23.75 219.08-23.75L219.08-23.75Q221.53-23.75 223.11-22.38 224.68-21 224.88-18.85L224.88-18.85 222.18-16.2 221.33-16.5Q220.98-19 219.83-20.4 218.68-21.8 217.08-21.8L217.08-21.8Q214.98-21.8 213.53-20.38 212.08-18.95 211.33-16.78 210.58-14.6 210.58-12.4L210.58-12.4Q210.58-10.8 210.88-9.05 211.18-7.3 211.93-5.78 212.68-4.25 214.06-3.3 215.43-2.35 217.63-2.35L217.63-2.35Q219.83-2.35 221.73-3.38 223.63-4.4 225.28-5.8ZM248.68-17L248.68-17Q248.68-16.55 248.35-16.35 248.03-16.15 247.63-15.95L247.63-15.95 233.53-9.85Q233.68-8.3 234.35-6.65 235.03-5 236.4-3.9 237.78-2.8 239.98-2.8L239.98-2.8Q242.03-2.8 244-3.85 245.98-4.9 247.68-6.2L247.68-6.2 248.23-6.1 248.88-5.2Q247.33-3.75 245.5-2.43 243.68-1.1 241.65-0.25 239.63 0.6 237.48 0.6L237.48 0.6Q234.98 0.6 233.35-0.45 231.73-1.5 230.83-3.23 229.93-4.95 229.55-7.08 229.18-9.2 229.18-11.3L229.18-11.3Q229.18-13.5 229.73-15.6 230.28-17.7 231.73-19.4L231.73-19.4Q233.58-21.55 236.15-22.73 238.73-23.9 241.58-23.9L241.58-23.9Q244.83-23.9 246.75-21.9 248.68-19.9 248.68-17ZM239.83-21.9L239.83-21.9Q238.58-21.9 237.5-21.35 236.43-20.8 235.63-19.8L235.63-19.8Q234.18-18.25 233.75-16.55 233.33-14.85 233.33-13L233.33-13Q233.33-12.8 233.35-12.58 233.38-12.35 233.43-12.1L233.43-12.1 233.63-11.9 243.73-15.9Q243.98-16 244.18-16.3 244.38-16.6 244.38-17.2L244.38-17.2Q244.38-18.25 243.83-19.35 243.28-20.45 242.25-21.18 241.23-21.9 239.83-21.9Z" opacity="1" transform="matrix(1,0,0,1,0,0)" fill="#000000" class="wordmark-text-0" data-fill-palette-color="quaternary" id="text-0"></path></svg></g></svg></g><g transform="matrix(1,0,0,1,0,38.303029759056294)"><svg viewBox="0 0 213.1584412271571 19.150337350694286" height="19.150337350694286" width="213.1584412271571"><g transform="matrix(1,0,0,1,0,0)"><svg width="213.1584412271571" viewBox="2.2 -37.16 552.1899999999999 49.61" height="19.150337350694286" data-palette-color="#000000"><path d="M18.7-20.73L18.7-20.73Q17.29-22.44 14.75-22.44L14.75-22.44Q9.99-22.44 8.54-17.02L8.54-17.02Q8.06-15.11 8.06-12.45L8.06-12.45Q8.06-7.5 9.96-4.98 11.87-2.47 14.72-2.47L14.72-2.47Q16.82-2.47 18.29-3.69 19.75-4.91 20.31-7.18L20.31-7.18 23.66-7.18Q23.66-4.15 20.98-1.83 18.31 0.49 13.73 0.49 9.16 0.49 5.96-2.37L5.96-2.37Q2.2-5.71 2.2-12.21L2.2-12.21Q2.2-17.5 5.33-21.37 8.47-25.24 14.55-25.24L14.55-25.24Q18.53-25.24 21.19-23.32 23.85-21.39 23.85-18.33L23.85-18.33Q23.85-16.85 22.89-15.83 21.92-14.82 20.43-14.82L20.43-14.82Q18.31-14.82 17.5-16.8L17.5-16.8Q17.26-17.38 17.26-18.09L17.26-18.09Q17.26-19.78 18.7-20.73ZM48.1-12.5L48.1-12.5Q48.1-15.43 49.02-17.91 49.93-20.39 51.57-22.02L51.57-22.02Q54.79-25.24 60.14-25.24L60.14-25.24Q65.54-25.24 68.84-22.01 72.15-18.77 72.15-12.83 72.15-6.88 69.1-3.2 66.05 0.49 60.14 0.49L60.14 0.49Q54.23 0.49 51.17-3.09 48.1-6.67 48.1-12.5ZM60.14-2.44L60.14-2.44Q62.97-2.44 64.74-5.03 66.51-7.62 66.51-12.3L66.51-12.3Q66.51-19.85 62.7-21.73L62.7-21.73Q61.53-22.31 60.14-22.31L60.14-22.31Q55.62-22.31 54.26-16.85L54.26-16.85Q53.77-14.97 53.77-12.45L53.77-12.45Q53.77-7.62 55.54-5.03 57.31-2.44 60.14-2.44ZM111.69-21.58L111.69-21.58Q107.68-21.58 105.19-19.09L105.19-19.09 105.19-5.25Q105.19-3.74 105.68-3.34L105.68-3.34Q106.53-2.69 108.9-2.69L108.9-2.69 108.9 0 96.5 0 96.5-2.69Q98.6-2.69 99.14-3.11 99.67-3.54 99.8-4.03 99.92-4.52 99.92-5.25L99.92-5.25 99.92-18.55Q99.92-20.31 99.61-20.85 99.31-21.39 97.94-21.39L97.94-21.39 96.45-21.39 96.45-24.07Q98.75-24.07 100.05-24.43 101.36-24.78 101.91-24.94 102.46-25.1 103.09-25.1L103.09-25.1Q104.39-25.1 104.79-24.35 105.19-23.61 105.19-21.97L105.19-21.97Q107.8-24.17 111.25-24.95L111.25-24.95Q112.39-25.22 113.49-25.22L113.49-25.22Q121.4-25.22 121.4-14.75L121.4-14.75 121.4-5.3Q121.4-3.69 121.87-3.19 122.33-2.69 124.4-2.69L124.4-2.69 124.4 0 112.86 0 112.86-2.69Q115.08-2.69 115.53-3.14 115.98-3.59 116.06-4.08 116.13-4.57 116.13-5.3L116.13-5.3 116.13-14.43Q116.13-17.82 115.49-19.09L115.49-19.09Q114.25-21.58 111.69-21.58ZM163.16-21.58L163.16-21.58Q159.15-21.58 156.66-19.09L156.66-19.09 156.66-5.25Q156.66-3.74 157.15-3.34L157.15-3.34Q158.01-2.69 160.37-2.69L160.37-2.69 160.37 0 147.97 0 147.97-2.69Q150.07-2.69 150.61-3.11 151.15-3.54 151.27-4.03 151.39-4.52 151.39-5.25L151.39-5.25 151.39-18.55Q151.39-20.31 151.09-20.85 150.78-21.39 149.41-21.39L149.41-21.39 147.92-21.39 147.92-24.07Q150.22-24.07 151.52-24.43 152.83-24.78 153.38-24.94 153.93-25.1 154.56-25.1L154.56-25.1Q155.86-25.1 156.26-24.35 156.66-23.61 156.66-21.97L156.66-21.97Q159.28-24.17 162.72-24.95L162.72-24.95Q163.87-25.22 164.96-25.22L164.96-25.22Q172.87-25.22 172.87-14.75L172.87-14.75 172.87-5.3Q172.87-3.69 173.34-3.19 173.8-2.69 175.88-2.69L175.88-2.69 175.88 0 164.33 0 164.33-2.69Q166.55-2.69 167-3.14 167.45-3.59 167.53-4.08 167.6-4.57 167.6-5.3L167.6-5.3 167.6-14.43Q167.6-17.82 166.97-19.09L166.97-19.09Q165.72-21.58 163.16-21.58ZM222.47-11.25L222.47-11.25 205.52-11.25Q205.52-7.06 207.51-4.76 209.5-2.47 212.43-2.47L212.43-2.47Q216.36-2.47 218.07-5.71L218.07-5.71 221.71-5.74Q221.15-3.13 218.5-1.32 215.85 0.49 211.36 0.49 206.87 0.49 203.6-2.29L203.6-2.29Q199.69-5.64 199.69-11.72 199.69-17.8 202.8-21.52 205.91-25.24 211.73-25.24L211.73-25.24Q219.37-25.24 221.61-19.09L221.61-19.09Q222.52-16.63 222.52-14.43 222.52-12.23 222.47-11.25ZM216.83-14.92L216.83-14.92Q216.83-22.39 211.75-22.39L211.75-22.39Q208.89-22.39 207.29-20.17 205.69-17.94 205.55-14.01L205.55-14.01 216.8-14.01Q216.83-14.48 216.83-14.92ZM263.64-20.73L263.64-20.73Q262.22-22.44 259.68-22.44L259.68-22.44Q254.92-22.44 253.48-17.02L253.48-17.02Q252.99-15.11 252.99-12.45L252.99-12.45Q252.99-7.5 254.9-4.98 256.8-2.47 259.66-2.47L259.66-2.47Q261.76-2.47 263.22-3.69 264.69-4.91 265.25-7.18L265.25-7.18 268.59-7.18Q268.59-4.15 265.92-1.83 263.25 0.49 258.67 0.49 254.09 0.49 250.89-2.37L250.89-2.37Q247.13-5.71 247.13-12.21L247.13-12.21Q247.13-17.5 250.27-21.37 253.41-25.24 259.49-25.24L259.49-25.24Q263.47-25.24 266.13-23.32 268.79-21.39 268.79-18.33L268.79-18.33Q268.79-16.85 267.82-15.83 266.86-14.82 265.37-14.82L265.37-14.82Q263.25-14.82 262.44-16.8L262.44-16.8Q262.2-17.38 262.2-18.09L262.2-18.09Q262.2-19.78 263.64-20.73ZM303.02 0.49L303.02 0.49Q295.33 0.49 295.33-8.06L295.33-8.06 295.33-20.26Q295.33-21.22 295.1-21.52 294.87-21.83 294.11-21.83L294.11-21.83 292.11-21.83 292.11-24.76 293.01-24.76Q294.87-24.76 295.74-25.93 296.6-27.1 296.68-29.79L296.68-29.79 296.7-31.96 300.61-31.96 300.61-24.76 308.1-24.76 308.1-21.83 300.61-21.83 300.61-8.13Q300.61-3.59 302.71-2.71L302.71-2.71Q303.29-2.47 303.88-2.47L303.88-2.47Q306.44-2.47 307.22-6.69L307.22-6.69 310.06-6.69Q309.81-1.68 305.88-0.05L305.88-0.05Q304.61 0.49 303.02 0.49ZM339.7-29.76L339.7-29.76Q338.12-29.76 337-30.82 335.89-31.88 335.89-33.42L335.89-33.42Q335.89-34.99 337.02-36.07 338.14-37.16 339.7-37.16L339.7-37.16Q341.26-37.16 342.39-36.07 343.51-34.99 343.51-33.42L343.51-33.42Q343.51-31.88 342.4-30.82 341.29-29.76 339.7-29.76ZM333.48 0L333.48-2.69Q335.75-2.69 336.32-3.11 336.89-3.54 337.02-4.03 337.14-4.52 337.14-5.25L337.14-5.25 337.14-18.7Q337.14-20.46 336.83-21 336.53-21.53 335.19-21.53L335.19-21.53 333.43-21.53 333.43-24.22Q335.82-24.22 337.19-24.57 338.55-24.93 339.12-25.09 339.68-25.24 340.34-25.24L340.34-25.24Q341.61-25.24 342.01-24.5 342.41-23.75 342.41-22.12L342.41-22.12 342.41-5.25Q342.41-3.71 342.9-3.32L342.9-3.32Q343.73-2.69 346.05-2.69L346.05-2.69 346.05 0 333.48 0ZM385.17-21.58L385.17-21.58Q381.16-21.58 378.67-19.09L378.67-19.09 378.67-5.25Q378.67-3.74 379.16-3.34L379.16-3.34Q380.02-2.69 382.39-2.69L382.39-2.69 382.39 0 369.98 0 369.98-2.69Q372.08-2.69 372.62-3.11 373.16-3.54 373.28-4.03 373.4-4.52 373.4-5.25L373.4-5.25 373.4-18.55Q373.4-20.31 373.1-20.85 372.79-21.39 371.42-21.39L371.42-21.39 369.93-21.39 369.93-24.07Q372.23-24.07 373.54-24.43 374.84-24.78 375.39-24.94 375.94-25.1 376.58-25.1L376.58-25.1Q377.87-25.1 378.27-24.35 378.67-23.61 378.67-21.97L378.67-21.97Q381.29-24.17 384.73-24.95L384.73-24.95Q385.88-25.22 386.98-25.22L386.98-25.22Q394.89-25.22 394.89-14.75L394.89-14.75 394.89-5.3Q394.89-3.69 395.35-3.19 395.81-2.69 397.89-2.69L397.89-2.69 397.89 0 386.34 0 386.34-2.69Q388.56-2.69 389.01-3.14 389.47-3.59 389.54-4.08 389.61-4.57 389.61-5.3L389.61-5.3 389.61-14.43Q389.61-17.82 388.98-19.09L388.98-19.09Q387.73-21.58 385.17-21.58ZM439.67-23.34L439.67-23.34Q441.84-25.9 445.31-25.9L445.31-25.9Q446.48-25.9 447.37-25.04 448.26-24.17 448.26-22.89 448.26-21.61 447.49-20.86 446.72-20.12 445.65-20.12 444.58-20.12 443.83-20.73 443.09-21.34 443.01-22.61L443.01-22.61Q442.13-22.27 441.4-21.58L441.4-21.58Q442.87-19.46 442.87-16.78 442.87-14.11 442.05-12.44 441.23-10.77 439.83-9.58 438.42-8.4 436.57-7.76 434.71-7.13 433.24-7.13 431.76-7.13 431-7.2L431-7.2Q429.24-6.81 428.63-5.71L428.63-5.71Q428.46-5.44 428.46-5.1L428.46-5.1Q428.46-4.37 429.78-4.05 431.1-3.74 434.19-3.48 437.28-3.22 439.29-2.87 441.3-2.51 442.77-1.76L442.77-1.76Q445.87-0.12 445.87 3.81 445.87 7.74 442.04 10.1 438.2 12.45 432.66 12.45L432.66 12.45Q423.97 12.45 421.8 8.03L421.8 8.03Q421.14 6.69 421.14 5.08L421.14 5.08Q421.14 0.93 426.19-1.66L426.19-1.66Q424.46-2.69 424.46-4.83 424.46-6.98 427.17-8.2L427.17-8.2Q424.87-9.08 423.56-11.34 422.24-13.6 422.24-15.94L422.24-15.94Q422.24-20.34 425.4-22.79 428.56-25.24 432.83-25.24 437.11-25.24 439.67-23.34ZM432.66-9.94L432.66-9.94Q435.88-9.94 437.13-13.35L437.13-13.35Q437.57-14.53 437.57-16.26L437.57-16.26Q437.57-19.48 436.15-21.02 434.74-22.56 432.66-22.56L432.66-22.56Q429.27-22.56 428-19.12L428-19.12Q427.56-17.87 427.56-16.16L427.56-16.16Q427.56-13.04 429.09-11.49 430.61-9.94 432.66-9.94ZM428.8-0.12L428.8-0.12Q426.39 1.17 426.39 4.27L426.39 4.27Q426.39 6.84 428.44 8.18 430.49 9.52 433.83 9.52L433.83 9.52Q439.08 9.52 440.74 6.74L440.74 6.74Q441.28 5.88 441.28 4.81L441.28 4.81Q441.28 1.27 435.23 0.71L435.23 0.71Q433.32 0.51 431.66 0.37 430 0.22 428.8-0.12ZM472.98-3.17L472.98-3.17Q472.98-4.74 474.1-5.82 475.22-6.91 476.79-6.91L476.79-6.91Q478.35-6.91 479.47-5.82 480.59-4.74 480.59-3.17L480.59-3.17Q480.59-1.64 479.48-0.57 478.37 0.49 476.79 0.49L476.79 0.49Q475.2 0.49 474.09-0.57 472.98-1.64 472.98-3.17ZM509.87-3.17L509.87-3.17Q509.87-4.74 511-5.82 512.12-6.91 513.68-6.91L513.68-6.91Q515.25-6.91 516.37-5.82 517.49-4.74 517.49-3.17L517.49-3.17Q517.49-1.64 516.38-0.57 515.27 0.49 513.68 0.49L513.68 0.49Q512.1 0.49 510.99-0.57 509.87-1.64 509.87-3.17ZM546.77-3.17L546.77-3.17Q546.77-4.74 547.89-5.82 549.02-6.91 550.58-6.91L550.58-6.91Q552.14-6.91 553.27-5.82 554.39-4.74 554.39-3.17L554.39-3.17Q554.39-1.64 553.28-0.57 552.17 0.49 550.58 0.49L550.58 0.49Q548.99 0.49 547.88-0.57 546.77-1.64 546.77-3.17Z" opacity="1" transform="matrix(1,0,0,1,0,0)" fill="#000000" class="slogan-text-1" data-fill-palette-color="quaternary" id="text-1"></path></svg></g></svg></g></svg></g></svg></g><g transform="matrix(1,0,0,1,66.8789439407409,0)"><svg viewBox="0 0 79.4005533456753 79.4005533456753" height="79.4005533456753" width="79.4005533456753"><g><svg xmlns="http://www.w3.org/2000/svg" xmlns:xlink="http://www.w3.org/1999/xlink" version="1.1" x="0" y="0" viewBox="1 1 48 48" enable-background="new 0 0 50 50" xml:space="preserve" height="79.4005533456753" width="79.4005533456753" class="icon-icon-0" data-fill-palette-color="quaternary" id="icon-0"><g fill="#000000" data-fill-palette-color="quaternary"><polygon fill="#000000" points="17,18.188 34.139,28.083 17,37.978  " data-fill-palette-color="quaternary"></polygon><g fill="#000000" data-fill-palette-color="quaternary"><path fill="#000000" d="M1 1V49H49V1zM28 5H34V10H28zM17 5H22V10H17zM5 5H11V10H5zM45 45H5V13H45zM45 10H40V5H45z" data-fill-palette-color="quaternary"></path></g></g></svg></g></svg></g><g></g></svg></g></svg></g></svg></g></svg></g><defs></defs><mask id="78ea31f3-998a-4dfd-a5a5-1e0e43a8922e"><g id="SvgjsG4609"><svg viewBox="0 0 342.85155851775386 342.85155851775386" height="342.85155851775386" width="342.85155851775386"><g><svg></svg></g><g><svg viewBox="0 0 342.85155851775386 342.85155851775386" height="342.85155851775386" width="342.85155851775386"><g><path d="M0 171.426c0-94.676 76.75-171.426 171.426-171.426 94.676 0 171.426 76.75 171.426 171.426 0 94.676-76.75 171.426-171.426 171.426-94.676 0-171.426-76.75-171.426-171.426zM171.426 340.057c93.132 0 168.631-75.499 168.631-168.631 0-93.132-75.499-168.631-168.631-168.632-93.132 0-168.631 75.499-168.632 168.632 0 93.132 75.499 168.631 168.632 168.631z" fill="white" stroke="transparent"></path><ellipse rx="164.56874808852186" ry="164.56874808852186" cx="171.42577925887693" cy="171.42577925887693" fill="white" stroke="transparent" stroke-width="0" fill-opacity="1"></ellipse></g><g transform="matrix(1,0,0,1,64.84655864529837,99.34110459718137)"><svg viewBox="0 0 213.1584412271571 144.16934932339112" height="144.16934932339112" width="213.1584412271571"><g><svg viewBox="0 0 213.1584412271571 144.16934932339112" height="144.16934932339112" width="213.1584412271571"><g><svg viewBox="0 0 213.1584412271571 144.16934932339112" height="144.16934932339112" width="213.1584412271571"><g transform="matrix(1,0,0,1,0,86.71598221364053)"><svg viewBox="0 0 213.1584412271571 57.45336710975058" height="57.45336710975058" width="213.1584412271571"><g id="SvgjsG4608"><svg viewBox="0 0 213.1584412271571 57.45336710975058" height="57.45336710975058" width="213.1584412271571" id="SvgjsSvg4607"><g><svg viewBox="0 0 213.1584412271571 30.987600891091077" height="30.987600891091077" width="213.1584412271571"><g transform="matrix(1,0,0,1,0,0)"><svg width="213.1584412271571" viewBox="1.95 -34.95 246.93 35.900000000000006" height="30.987600891091077" data-palette-color="#000000"><path d="M31.2-29.3L31.2-29.3 28.35-26.4 27.65-26.45Q26.4-29.85 24.1-31.38 21.8-32.9 18.7-32.9L18.7-32.9Q15.3-32.9 12.95-31.55 10.6-30.2 9.15-27.9 7.7-25.6 7.05-22.83 6.4-20.05 6.4-17.2L6.4-17.2Q6.4-14.9 7.08-12.65 7.75-10.4 8.7-8.65 9.65-6.9 10.45-6.05L10.45-6.05Q12.5-4 14.43-2.95 16.35-1.9 19.4-1.9L19.4-1.9Q21.95-1.9 24.3-2.88 26.65-3.85 28.75-5.25L28.75-5.25 29.6-3.8Q26.9-1.95 23.9-0.6 20.9 0.75 17.65 0.75L17.65 0.75Q14.7 0.75 11.8-0.03 8.9-0.8 6.75-2.95L6.75-2.95Q4.15-5.6 3.05-9.13 1.95-12.65 1.95-16.3L1.95-16.3Q1.95-19.9 2.93-23.4 3.9-26.9 6.5-29.5L6.5-29.5Q9.25-32.25 12.88-33.6 16.5-34.95 20.4-34.95L20.4-34.95Q23.7-34.95 26.48-33.73 29.25-32.5 31.2-29.3ZM53.2-2.95L53.2-2.95Q51.45-0.95 48.92-0.13 46.4 0.7 43.75 0.7L43.75 0.7Q40.3 0.7 38.22-0.83 36.15-2.35 35.2-4.75 34.25-7.15 34.05-9.8L34.05-9.8Q34.05-12.4 34.52-15 35-17.6 36.8-19.55L36.8-19.55Q38.55-21.5 41.07-22.38 43.6-23.25 46.2-23.25L46.2-23.25Q49.9-23.25 52.05-21.6 54.2-19.95 55.15-17.35 56.1-14.75 56.1-11.95L56.1-11.95Q56.1-9.5 55.47-7.15 54.85-4.8 53.2-2.95ZM45.05-21.3L45.05-21.3Q43.05-21.3 41.25-19.95 39.45-18.6 38.75-15.8L38.75-15.8Q38.55-14.85 38.45-13.9 38.35-12.95 38.35-11.95L38.35-11.95Q38.35-10.4 38.65-8.55 38.95-6.7 39.67-5.08 40.4-3.45 41.72-2.4 43.05-1.35 45.1-1.35L45.1-1.35Q47.15-1.35 48.42-2.25 49.7-3.15 50.4-4.6 51.1-6.05 51.37-7.75 51.65-9.45 51.65-11L51.65-11Q51.65-12.55 51.4-14.33 51.15-16.1 50.47-17.7 49.8-19.3 48.47-20.3 47.15-21.3 45.05-21.3ZM68.25-0.9L68.25-0.9 64.75 0.3 64-0.05Q64.05-1 64.12-2.85 64.2-4.7 64.27-6.93 64.34-9.15 64.4-11.28 64.45-13.4 64.45-14.9L64.45-14.9Q64.45-17.4 64.15-19.03 63.85-20.65 62.6-20.65L62.6-20.65Q61.8-20.65 60.87-20.13 59.95-19.6 58.85-18.9L58.85-18.9 58-20Q59.05-20.75 60.25-21.58 61.45-22.4 62.65-22.98 63.85-23.55 64.75-23.55L64.75-23.55Q66.65-23.55 67.4-22.55 68.15-21.55 68.34-20.15L68.34-20.15 68.75-19.85Q70.84-21.15 73.32-22.3 75.8-23.45 78.2-23.45L78.2-23.45Q79.3-23.45 80.32-23.15 81.34-22.85 82.05-22L82.05-22Q82.55-21.4 82.75-19.83 82.95-18.25 83-16.32 83.05-14.4 83.05-12.8L83.05-12.8Q83.05-9.05 83.07-6.9 83.09-4.75 83.57-3.88 84.05-3 85.45-3L85.45-3Q86.3-3 87.4-3.65 88.5-4.3 89.45-5L89.45-5 90.09-5 90.55-3.95Q88.84-2.25 86.67-0.88 84.5 0.5 82.7 0.5L82.7 0.5Q80.65 0.5 79.87-0.8 79.09-2.1 79.09-3.9L79.09-3.9 79.34-12.45Q79.34-16.2 78.42-18.35 77.5-20.5 74.84-20.5L74.84-20.5Q73.15-20.5 71.45-19.53 69.75-18.55 68.4-17.45L68.4-17.45Q68.3-14.75 68.2-11.65 68.09-8.55 68.09-5.8L68.09-5.8Q68.09-4.75 68.15-3.58 68.2-2.4 68.25-0.9ZM89.99-20.3L90.19-21.4 90.54-21.7 95.79-21.7 96.09-22Q96.09-23.3 96.24-25.03 96.39-26.75 96.99-28.1L96.99-28.1Q98.14-30.75 100.22-32.1 102.29-33.45 104.64-33.45L104.64-33.45Q106.69-33.45 107.74-32.6 108.79-31.75 109.29-30.75L109.29-30.75 106.39-28.05 105.79-28.25Q105.69-28.8 105.47-29.55 105.24-30.3 104.67-30.88 104.09-31.45 102.89-31.45L102.89-31.45Q101.84-31.45 101.17-30.15 100.49-28.85 100.19-26.7 99.89-24.55 99.89-22L99.89-22 100.09-21.7 106.29-21.7 106.54-21.35 106.19-20.25 105.84-19.95 100.09-19.95 99.79-19.65 99.79-14.1Q99.79-10.6 99.92-7.13 100.04-3.65 100.29-0.6L100.29-0.6 96.34 0.6 95.49 0.05Q95.74-3.65 95.94-7.2 96.14-10.75 96.14-14.15L96.14-14.15 96.14-19.55 95.84-19.95 90.24-19.95 89.99-20.3ZM128.39-17L128.39-17Q128.39-16.55 128.06-16.35 127.74-16.15 127.34-15.95L127.34-15.95 113.24-9.85Q113.39-8.3 114.07-6.65 114.74-5 116.12-3.9 117.49-2.8 119.69-2.8L119.69-2.8Q121.74-2.8 123.72-3.85 125.69-4.9 127.39-6.2L127.39-6.2 127.94-6.1 128.59-5.2Q127.04-3.75 125.22-2.43 123.39-1.1 121.37-0.25 119.34 0.6 117.19 0.6L117.19 0.6Q114.69 0.6 113.07-0.45 111.44-1.5 110.54-3.23 109.64-4.95 109.27-7.08 108.89-9.2 108.89-11.3L108.89-11.3Q108.89-13.5 109.44-15.6 109.99-17.7 111.44-19.4L111.44-19.4Q113.29-21.55 115.87-22.73 118.44-23.9 121.29-23.9L121.29-23.9Q124.54-23.9 126.47-21.9 128.39-19.9 128.39-17ZM119.54-21.9L119.54-21.9Q118.29-21.9 117.22-21.35 116.14-20.8 115.34-19.8L115.34-19.8Q113.89-18.25 113.47-16.55 113.04-14.85 113.04-13L113.04-13Q113.04-12.8 113.07-12.58 113.09-12.35 113.14-12.1L113.14-12.1 113.34-11.9 123.44-15.9Q123.69-16 123.89-16.3 124.09-16.6 124.09-17.2L124.09-17.2Q124.09-18.25 123.54-19.35 122.99-20.45 121.97-21.18 120.94-21.9 119.54-21.9ZM149.89-19.4L149.89-19.4 147.19-16.95 146.59-17.2Q146.39-18.25 145.79-19.18 145.19-20.1 143.94-20.1L143.94-20.1Q142.39-20.1 141.44-19.05 140.49-18 140.09-17L140.09-17Q139.74-16.2 139.69-14.7 139.64-13.2 139.69-11.53 139.74-9.85 139.74-8.5L139.74-8.5Q139.74-4.75 139.89-0.9L139.89-0.9 136.39 0.15 135.64-0.3Q135.89-2.95 136.06-6.05 136.24-9.15 136.24-12.15L136.24-12.15Q136.24-14.1 136.19-16.05 136.14-18 135.69-19.3 135.24-20.6 134.09-20.6L134.09-20.6Q133.24-20.6 132.19-20.1 131.14-19.6 130.19-19.05L130.19-19.05 129.59-19.9Q130.59-20.7 131.76-21.55 132.94-22.4 134.14-23.03 135.34-23.65 136.34-23.65L136.34-23.65Q138.04-23.65 138.89-22.65 139.74-21.65 139.94-20.05L139.94-20.05 140.44-19.85Q141.19-20.55 142.11-21.38 143.04-22.2 144.04-22.78 145.04-23.35 145.94-23.35L145.94-23.35Q149.49-23.35 149.89-19.4ZM171.29-17L171.29-17Q171.29-16.55 170.96-16.35 170.64-16.15 170.24-15.95L170.24-15.95 156.14-9.85Q156.29-8.3 156.96-6.65 157.64-5 159.01-3.9 160.39-2.8 162.59-2.8L162.59-2.8Q164.64-2.8 166.61-3.85 168.59-4.9 170.29-6.2L170.29-6.2 170.84-6.1 171.49-5.2Q169.94-3.75 168.11-2.43 166.29-1.1 164.26-0.25 162.24 0.6 160.09 0.6L160.09 0.6Q157.59 0.6 155.96-0.45 154.34-1.5 153.44-3.23 152.54-4.95 152.16-7.08 151.79-9.2 151.79-11.3L151.79-11.3Q151.79-13.5 152.34-15.6 152.89-17.7 154.34-19.4L154.34-19.4Q156.19-21.55 158.76-22.73 161.34-23.9 164.19-23.9L164.19-23.9Q167.44-23.9 169.36-21.9 171.29-19.9 171.29-17ZM162.44-21.9L162.44-21.9Q161.19-21.9 160.11-21.35 159.04-20.8 158.24-19.8L158.24-19.8Q156.79-18.25 156.36-16.55 155.94-14.85 155.94-13L155.94-13Q155.94-12.8 155.96-12.58 155.99-12.35 156.04-12.1L156.04-12.1 156.24-11.9 166.34-15.9Q166.59-16 166.79-16.3 166.99-16.6 166.99-17.2L166.99-17.2Q166.99-18.25 166.44-19.35 165.89-20.45 164.86-21.18 163.84-21.9 162.44-21.9ZM182.23-0.9L182.23-0.9 178.73 0.3 177.98-0.05Q178.03-1 178.11-2.85 178.18-4.7 178.26-6.93 178.33-9.15 178.38-11.28 178.43-13.4 178.43-14.9L178.43-14.9Q178.43-17.4 178.13-19.03 177.83-20.65 176.58-20.65L176.58-20.65Q175.78-20.65 174.86-20.13 173.93-19.6 172.83-18.9L172.83-18.9 171.98-20Q173.03-20.75 174.23-21.58 175.43-22.4 176.63-22.98 177.83-23.55 178.73-23.55L178.73-23.55Q180.63-23.55 181.38-22.55 182.13-21.55 182.33-20.15L182.33-20.15 182.73-19.85Q184.83-21.15 187.31-22.3 189.78-23.45 192.18-23.45L192.18-23.45Q193.28-23.45 194.31-23.15 195.33-22.85 196.03-22L196.03-22Q196.53-21.4 196.73-19.83 196.93-18.25 196.98-16.32 197.03-14.4 197.03-12.8L197.03-12.8Q197.03-9.05 197.06-6.9 197.08-4.75 197.56-3.88 198.03-3 199.43-3L199.43-3Q200.28-3 201.38-3.65 202.48-4.3 203.43-5L203.43-5 204.08-5 204.53-3.95Q202.83-2.25 200.66-0.88 198.48 0.5 196.68 0.5L196.68 0.5Q194.63 0.5 193.86-0.8 193.08-2.1 193.08-3.9L193.08-3.9 193.33-12.45Q193.33-16.2 192.41-18.35 191.48-20.5 188.83-20.5L188.83-20.5Q187.13-20.5 185.43-19.53 183.73-18.55 182.38-17.45L182.38-17.45Q182.28-14.75 182.18-11.65 182.08-8.55 182.08-5.8L182.08-5.8Q182.08-4.75 182.13-3.58 182.18-2.4 182.23-0.9ZM225.28-5.8L225.28-5.8 225.73-5.7 226.28-4.8Q223.98-2.5 221.21-0.78 218.43 0.95 215.08 0.95L215.08 0.95Q212.03 0.95 210.28-0.18 208.53-1.3 207.71-3.1 206.88-4.9 206.66-6.95 206.43-9 206.43-10.85L206.43-10.85Q206.43-14.6 208.06-17.53 209.68-20.45 212.53-22.1 215.38-23.75 219.08-23.75L219.08-23.75Q221.53-23.75 223.11-22.38 224.68-21 224.88-18.85L224.88-18.85 222.18-16.2 221.33-16.5Q220.98-19 219.83-20.4 218.68-21.8 217.08-21.8L217.08-21.8Q214.98-21.8 213.53-20.38 212.08-18.95 211.33-16.78 210.58-14.6 210.58-12.4L210.58-12.4Q210.58-10.8 210.88-9.05 211.18-7.3 211.93-5.78 212.68-4.25 214.06-3.3 215.43-2.35 217.63-2.35L217.63-2.35Q219.83-2.35 221.73-3.38 223.63-4.4 225.28-5.8ZM248.68-17L248.68-17Q248.68-16.55 248.35-16.35 248.03-16.15 247.63-15.95L247.63-15.95 233.53-9.85Q233.68-8.3 234.35-6.65 235.03-5 236.4-3.9 237.78-2.8 239.98-2.8L239.98-2.8Q242.03-2.8 244-3.85 245.98-4.9 247.68-6.2L247.68-6.2 248.23-6.1 248.88-5.2Q247.33-3.75 245.5-2.43 243.68-1.1 241.65-0.25 239.63 0.6 237.48 0.6L237.48 0.6Q234.98 0.6 233.35-0.45 231.73-1.5 230.83-3.23 229.93-4.95 229.55-7.08 229.18-9.2 229.18-11.3L229.18-11.3Q229.18-13.5 229.73-15.6 230.28-17.7 231.73-19.4L231.73-19.4Q233.58-21.55 236.15-22.73 238.73-23.9 241.58-23.9L241.58-23.9Q244.83-23.9 246.75-21.9 248.68-19.9 248.68-17ZM239.83-21.9L239.83-21.9Q238.58-21.9 237.5-21.35 236.43-20.8 235.63-19.8L235.63-19.8Q234.18-18.25 233.75-16.55 233.33-14.85 233.33-13L233.33-13Q233.33-12.8 233.35-12.58 233.38-12.35 233.43-12.1L233.43-12.1 233.63-11.9 243.73-15.9Q243.98-16 244.18-16.3 244.38-16.6 244.38-17.2L244.38-17.2Q244.38-18.25 243.83-19.35 243.28-20.45 242.25-21.18 241.23-21.9 239.83-21.9Z" opacity="1" transform="matrix(1,0,0,1,0,0)" fill="black" class="wordmark-text-0" id="SvgjsPath4606"></path></svg></g></svg></g><g transform="matrix(1,0,0,1,0,38.303029759056294)"><svg viewBox="0 0 213.1584412271571 19.150337350694286" height="19.150337350694286" width="213.1584412271571"><g transform="matrix(1,0,0,1,0,0)"><svg width="213.1584412271571" viewBox="2.2 -37.16 552.1899999999999 49.61" height="19.150337350694286" data-palette-color="#000000"><path d="M18.7-20.73L18.7-20.73Q17.29-22.44 14.75-22.44L14.75-22.44Q9.99-22.44 8.54-17.02L8.54-17.02Q8.06-15.11 8.06-12.45L8.06-12.45Q8.06-7.5 9.96-4.98 11.87-2.47 14.72-2.47L14.72-2.47Q16.82-2.47 18.29-3.69 19.75-4.91 20.31-7.18L20.31-7.18 23.66-7.18Q23.66-4.15 20.98-1.83 18.31 0.49 13.73 0.49 9.16 0.49 5.96-2.37L5.96-2.37Q2.2-5.71 2.2-12.21L2.2-12.21Q2.2-17.5 5.33-21.37 8.47-25.24 14.55-25.24L14.55-25.24Q18.53-25.24 21.19-23.32 23.85-21.39 23.85-18.33L23.85-18.33Q23.85-16.85 22.89-15.83 21.92-14.82 20.43-14.82L20.43-14.82Q18.31-14.82 17.5-16.8L17.5-16.8Q17.26-17.38 17.26-18.09L17.26-18.09Q17.26-19.78 18.7-20.73ZM48.1-12.5L48.1-12.5Q48.1-15.43 49.02-17.91 49.93-20.39 51.57-22.02L51.57-22.02Q54.79-25.24 60.14-25.24L60.14-25.24Q65.54-25.24 68.84-22.01 72.15-18.77 72.15-12.83 72.15-6.88 69.1-3.2 66.05 0.49 60.14 0.49L60.14 0.49Q54.23 0.49 51.17-3.09 48.1-6.67 48.1-12.5ZM60.14-2.44L60.14-2.44Q62.97-2.44 64.74-5.03 66.51-7.62 66.51-12.3L66.51-12.3Q66.51-19.85 62.7-21.73L62.7-21.73Q61.53-22.31 60.14-22.31L60.14-22.31Q55.62-22.31 54.26-16.85L54.26-16.85Q53.77-14.97 53.77-12.45L53.77-12.45Q53.77-7.62 55.54-5.03 57.31-2.44 60.14-2.44ZM111.69-21.58L111.69-21.58Q107.68-21.58 105.19-19.09L105.19-19.09 105.19-5.25Q105.19-3.74 105.68-3.34L105.68-3.34Q106.53-2.69 108.9-2.69L108.9-2.69 108.9 0 96.5 0 96.5-2.69Q98.6-2.69 99.14-3.11 99.67-3.54 99.8-4.03 99.92-4.52 99.92-5.25L99.92-5.25 99.92-18.55Q99.92-20.31 99.61-20.85 99.31-21.39 97.94-21.39L97.94-21.39 96.45-21.39 96.45-24.07Q98.75-24.07 100.05-24.43 101.36-24.78 101.91-24.94 102.46-25.1 103.09-25.1L103.09-25.1Q104.39-25.1 104.79-24.35 105.19-23.61 105.19-21.97L105.19-21.97Q107.8-24.17 111.25-24.95L111.25-24.95Q112.39-25.22 113.49-25.22L113.49-25.22Q121.4-25.22 121.4-14.75L121.4-14.75 121.4-5.3Q121.4-3.69 121.87-3.19 122.33-2.69 124.4-2.69L124.4-2.69 124.4 0 112.86 0 112.86-2.69Q115.08-2.69 115.53-3.14 115.98-3.59 116.06-4.08 116.13-4.57 116.13-5.3L116.13-5.3 116.13-14.43Q116.13-17.82 115.49-19.09L115.49-19.09Q114.25-21.58 111.69-21.58ZM163.16-21.58L163.16-21.58Q159.15-21.58 156.66-19.09L156.66-19.09 156.66-5.25Q156.66-3.74 157.15-3.34L157.15-3.34Q158.01-2.69 160.37-2.69L160.37-2.69 160.37 0 147.97 0 147.97-2.69Q150.07-2.69 150.61-3.11 151.15-3.54 151.27-4.03 151.39-4.52 151.39-5.25L151.39-5.25 151.39-18.55Q151.39-20.31 151.09-20.85 150.78-21.39 149.41-21.39L149.41-21.39 147.92-21.39 147.92-24.07Q150.22-24.07 151.52-24.43 152.83-24.78 153.38-24.94 153.93-25.1 154.56-25.1L154.56-25.1Q155.86-25.1 156.26-24.35 156.66-23.61 156.66-21.97L156.66-21.97Q159.28-24.17 162.72-24.95L162.72-24.95Q163.87-25.22 164.96-25.22L164.96-25.22Q172.87-25.22 172.87-14.75L172.87-14.75 172.87-5.3Q172.87-3.69 173.34-3.19 173.8-2.69 175.88-2.69L175.88-2.69 175.88 0 164.33 0 164.33-2.69Q166.55-2.69 167-3.14 167.45-3.59 167.53-4.08 167.6-4.57 167.6-5.3L167.6-5.3 167.6-14.43Q167.6-17.82 166.97-19.09L166.97-19.09Q165.72-21.58 163.16-21.58ZM222.47-11.25L222.47-11.25 205.52-11.25Q205.52-7.06 207.51-4.76 209.5-2.47 212.43-2.47L212.43-2.47Q216.36-2.47 218.07-5.71L218.07-5.71 221.71-5.74Q221.15-3.13 218.5-1.32 215.85 0.49 211.36 0.49 206.87 0.49 203.6-2.29L203.6-2.29Q199.69-5.64 199.69-11.72 199.69-17.8 202.8-21.52 205.91-25.24 211.73-25.24L211.73-25.24Q219.37-25.24 221.61-19.09L221.61-19.09Q222.52-16.63 222.52-14.43 222.52-12.23 222.47-11.25ZM216.83-14.92L216.83-14.92Q216.83-22.39 211.75-22.39L211.75-22.39Q208.89-22.39 207.29-20.17 205.69-17.94 205.55-14.01L205.55-14.01 216.8-14.01Q216.83-14.48 216.83-14.92ZM263.64-20.73L263.64-20.73Q262.22-22.44 259.68-22.44L259.68-22.44Q254.92-22.44 253.48-17.02L253.48-17.02Q252.99-15.11 252.99-12.45L252.99-12.45Q252.99-7.5 254.9-4.98 256.8-2.47 259.66-2.47L259.66-2.47Q261.76-2.47 263.22-3.69 264.69-4.91 265.25-7.18L265.25-7.18 268.59-7.18Q268.59-4.15 265.92-1.83 263.25 0.49 258.67 0.49 254.09 0.49 250.89-2.37L250.89-2.37Q247.13-5.71 247.13-12.21L247.13-12.21Q247.13-17.5 250.27-21.37 253.41-25.24 259.49-25.24L259.49-25.24Q263.47-25.24 266.13-23.32 268.79-21.39 268.79-18.33L268.79-18.33Q268.79-16.85 267.82-15.83 266.86-14.82 265.37-14.82L265.37-14.82Q263.25-14.82 262.44-16.8L262.44-16.8Q262.2-17.38 262.2-18.09L262.2-18.09Q262.2-19.78 263.64-20.73ZM303.02 0.49L303.02 0.49Q295.33 0.49 295.33-8.06L295.33-8.06 295.33-20.26Q295.33-21.22 295.1-21.52 294.87-21.83 294.11-21.83L294.11-21.83 292.11-21.83 292.11-24.76 293.01-24.76Q294.87-24.76 295.74-25.93 296.6-27.1 296.68-29.79L296.68-29.79 296.7-31.96 300.61-31.96 300.61-24.76 308.1-24.76 308.1-21.83 300.61-21.83 300.61-8.13Q300.61-3.59 302.71-2.71L302.71-2.71Q303.29-2.47 303.88-2.47L303.88-2.47Q306.44-2.47 307.22-6.69L307.22-6.69 310.06-6.69Q309.81-1.68 305.88-0.05L305.88-0.05Q304.61 0.49 303.02 0.49ZM339.7-29.76L339.7-29.76Q338.12-29.76 337-30.82 335.89-31.88 335.89-33.42L335.89-33.42Q335.89-34.99 337.02-36.07 338.14-37.16 339.7-37.16L339.7-37.16Q341.26-37.16 342.39-36.07 343.51-34.99 343.51-33.42L343.51-33.42Q343.51-31.88 342.4-30.82 341.29-29.76 339.7-29.76ZM333.48 0L333.48-2.69Q335.75-2.69 336.32-3.11 336.89-3.54 337.02-4.03 337.14-4.52 337.14-5.25L337.14-5.25 337.14-18.7Q337.14-20.46 336.83-21 336.53-21.53 335.19-21.53L335.19-21.53 333.43-21.53 333.43-24.22Q335.82-24.22 337.19-24.57 338.55-24.93 339.12-25.09 339.68-25.24 340.34-25.24L340.34-25.24Q341.61-25.24 342.01-24.5 342.41-23.75 342.41-22.12L342.41-22.12 342.41-5.25Q342.41-3.71 342.9-3.32L342.9-3.32Q343.73-2.69 346.05-2.69L346.05-2.69 346.05 0 333.48 0ZM385.17-21.58L385.17-21.58Q381.16-21.58 378.67-19.09L378.67-19.09 378.67-5.25Q378.67-3.74 379.16-3.34L379.16-3.34Q380.02-2.69 382.39-2.69L382.39-2.69 382.39 0 369.98 0 369.98-2.69Q372.08-2.69 372.62-3.11 373.16-3.54 373.28-4.03 373.4-4.52 373.4-5.25L373.4-5.25 373.4-18.55Q373.4-20.31 373.1-20.85 372.79-21.39 371.42-21.39L371.42-21.39 369.93-21.39 369.93-24.07Q372.23-24.07 373.54-24.43 374.84-24.78 375.39-24.94 375.94-25.1 376.58-25.1L376.58-25.1Q377.87-25.1 378.27-24.35 378.67-23.61 378.67-21.97L378.67-21.97Q381.29-24.17 384.73-24.95L384.73-24.95Q385.88-25.22 386.98-25.22L386.98-25.22Q394.89-25.22 394.89-14.75L394.89-14.75 394.89-5.3Q394.89-3.69 395.35-3.19 395.81-2.69 397.89-2.69L397.89-2.69 397.89 0 386.34 0 386.34-2.69Q388.56-2.69 389.01-3.14 389.47-3.59 389.54-4.08 389.61-4.57 389.61-5.3L389.61-5.3 389.61-14.43Q389.61-17.82 388.98-19.09L388.98-19.09Q387.73-21.58 385.17-21.58ZM439.67-23.34L439.67-23.34Q441.84-25.9 445.31-25.9L445.31-25.9Q446.48-25.9 447.37-25.04 448.26-24.17 448.26-22.89 448.26-21.61 447.49-20.86 446.72-20.12 445.65-20.12 444.58-20.12 443.83-20.73 443.09-21.34 443.01-22.61L443.01-22.61Q442.13-22.27 441.4-21.58L441.4-21.58Q442.87-19.46 442.87-16.78 442.87-14.11 442.05-12.44 441.23-10.77 439.83-9.58 438.42-8.4 436.57-7.76 434.71-7.13 433.24-7.13 431.76-7.13 431-7.2L431-7.2Q429.24-6.81 428.63-5.71L428.63-5.71Q428.46-5.44 428.46-5.1L428.46-5.1Q428.46-4.37 429.78-4.05 431.1-3.74 434.19-3.48 437.28-3.22 439.29-2.87 441.3-2.51 442.77-1.76L442.77-1.76Q445.87-0.12 445.87 3.81 445.87 7.74 442.04 10.1 438.2 12.45 432.66 12.45L432.66 12.45Q423.97 12.45 421.8 8.03L421.8 8.03Q421.14 6.69 421.14 5.08L421.14 5.08Q421.14 0.93 426.19-1.66L426.19-1.66Q424.46-2.69 424.46-4.83 424.46-6.98 427.17-8.2L427.17-8.2Q424.87-9.08 423.56-11.34 422.24-13.6 422.24-15.94L422.24-15.94Q422.24-20.34 425.4-22.79 428.56-25.24 432.83-25.24 437.11-25.24 439.67-23.34ZM432.66-9.94L432.66-9.94Q435.88-9.94 437.13-13.35L437.13-13.35Q437.57-14.53 437.57-16.26L437.57-16.26Q437.57-19.48 436.15-21.02 434.74-22.56 432.66-22.56L432.66-22.56Q429.27-22.56 428-19.12L428-19.12Q427.56-17.87 427.56-16.16L427.56-16.16Q427.56-13.04 429.09-11.49 430.61-9.94 432.66-9.94ZM428.8-0.12L428.8-0.12Q426.39 1.17 426.39 4.27L426.39 4.27Q426.39 6.84 428.44 8.18 430.49 9.52 433.83 9.52L433.83 9.52Q439.08 9.52 440.74 6.74L440.74 6.74Q441.28 5.88 441.28 4.81L441.28 4.81Q441.28 1.27 435.23 0.71L435.23 0.71Q433.32 0.51 431.66 0.37 430 0.22 428.8-0.12ZM472.98-3.17L472.98-3.17Q472.98-4.74 474.1-5.82 475.22-6.91 476.79-6.91L476.79-6.91Q478.35-6.91 479.47-5.82 480.59-4.74 480.59-3.17L480.59-3.17Q480.59-1.64 479.48-0.57 478.37 0.49 476.79 0.49L476.79 0.49Q475.2 0.49 474.09-0.57 472.98-1.64 472.98-3.17ZM509.87-3.17L509.87-3.17Q509.87-4.74 511-5.82 512.12-6.91 513.68-6.91L513.68-6.91Q515.25-6.91 516.37-5.82 517.49-4.74 517.49-3.17L517.49-3.17Q517.49-1.64 516.38-0.57 515.27 0.49 513.68 0.49L513.68 0.49Q512.1 0.49 510.99-0.57 509.87-1.64 509.87-3.17ZM546.77-3.17L546.77-3.17Q546.77-4.74 547.89-5.82 549.02-6.91 550.58-6.91L550.58-6.91Q552.14-6.91 553.27-5.82 554.39-4.74 554.39-3.17L554.39-3.17Q554.39-1.64 553.28-0.57 552.17 0.49 550.58 0.49L550.58 0.49Q548.99 0.49 547.88-0.57 546.77-1.64 546.77-3.17Z" opacity="1" transform="matrix(1,0,0,1,0,0)" fill="black" class="slogan-text-1" id="SvgjsPath4605"></path></svg></g></svg></g></svg></g></svg></g><g transform="matrix(1,0,0,1,66.8789439407409,0)"><svg viewBox="0 0 79.4005533456753 79.4005533456753" height="79.4005533456753" width="79.4005533456753"><g><svg xmlns="http://www.w3.org/2000/svg" xmlns:xlink="http://www.w3.org/1999/xlink" version="1.1" x="0" y="0" viewBox="1 1 48 48" enable-background="new 0 0 50 50" xml:space="preserve" height="79.4005533456753" width="79.4005533456753" class="icon-icon-0" data-fill-palette-color="quaternary" id="SvgjsSvg4604"><g fill="black"><polygon fill="black" points="17,18.188 34.139,28.083 17,37.978  "></polygon><g fill="black"><path fill="black" d="M1 1V49H49V1zM28 5H34V10H28zM17 5H22V10H17zM5 5H11V10H5zM45 45H5V13H45zM45 10H40V5H45z"></path></g></g></svg></g></svg></g><g></g></svg></g></svg></g></svg></g></svg></g><defs><mask></mask></defs></svg><rect width="342.85155851775386" height="342.85155851775386" fill="black" stroke="none" visibility="hidden"></rect></g></mask><linearGradient x1="0" x2="1" y1="0.578" y2="0.595" id="f955c1d8-9a96-4861-965f-3deeafc6dcd7"><stop stop-color="#6ee2f5" offset="0"></stop><stop stop-color="#6454f0" offset="1"></stop></linearGradient></svg><rect width="342.85155851775386" height="342.85155851775386" fill="none" stroke="none" visibility="hidden"></rect></g></svg></g></svg>